<svg width="68" height="18" viewBox="0 0 68 18" fill="none" xmlns="http://www.w3.org/2000/svg">
<path d="M8.46154 16L2 10L8.46154 4" stroke="#181818" stroke-width="2.5" stroke-linecap="round" stroke-linejoin="round"/>
<path d="M19.672 10.208H20.68V14.6H19.672V10.208ZM24.496 4.088H25.48V14.948H24.496V4.088ZM16.672 10.832L16.54 9.992C18.688 9.992 21.364 9.98 23.74 9.704L23.8 10.448C21.364 10.808 18.772 10.844 16.672 10.832ZM17.56 7.808H22.924V8.624H17.56V7.808ZM17.56 4.688H22.792V5.504H18.556V8.264H17.56V4.688ZM27.6391 12.776H37.4671V13.604H27.6391V12.776ZM32.0311 10.448H33.0271V13.124H32.0311V10.448ZM28.8271 4.892H36.2551V8.18H29.8471V10.352H28.8631V7.376H35.2711V5.696H28.8271V4.892ZM28.8631 9.932H36.5071V10.748H28.8631V9.932ZM46.0101 4.076H47.0181V14.936H46.0101V4.076ZM46.7421 8.48H48.7461V9.308H46.7421V8.48ZM43.2381 5.252H44.2101C44.2101 8.336 42.7941 11.12 39.2901 12.884L38.7381 12.116C41.7381 10.592 43.2381 8.276 43.2381 5.408V5.252ZM39.2421 5.252H43.7541V6.068H39.2421V5.252ZM57.6132 4.088H58.6092V14.936H57.6132V4.088ZM54.4332 5.252H55.4172C55.4172 8.396 54.0012 11.144 50.3772 12.92L49.8492 12.116C52.9812 10.604 54.4332 8.3 54.4332 5.42V5.252ZM50.3412 5.252H54.8652V6.068H50.3412V5.252Z" fill="#181818"/>
</svg>
